<svg xmlns="http://www.w3.org/2000/svg" viewBox="0 0 6254.8 1230.2"><path d="M342.5,1036.7a204.8,204.8,0,0,1,17.5,58.9" style="fill:none;stroke:#1d1d1b;stroke-linecap:round;stroke-linejoin:round;stroke-width:9px"/><path d="M400.6,1044.1a483.1,483.1,0,0,1,12,53" style="fill:none;stroke:#1d1d1b;stroke-linecap:round;stroke-linejoin:round;stroke-width:9px"/><path d="M325.5,1101.3c19.8-8.6,45.1-2.1,58.3,15" style="fill:none;stroke:#1d1d1b;stroke-linecap:round;stroke-linejoin:round;stroke-width:9px"/><path d="M394.4,1102.2c20.3-6.1,44.1,2.9,55.3,20.8" style="fill:none;stroke:#1d1d1b;stroke-linecap:round;stroke-linejoin:round;stroke-width:9px"/><path d="M307.4,978.8c4.1-41.5-36.7-18-51.3-4.2a300.1,300.1,0,0,1-54.3,40.8c-3.3,2-6.8,4-9.1,7.1s-3.2,7.8-.9,11,7.7,3.7,12,3c14.5-2.4,26-21.5,36.3-11.3,3.4,3.4,9.2,1.5,13.5-.7a234.5,234.5,0,0,0,39.3-25.2C299.6,993.9,306.6,987.3,307.4,978.8Z" style="fill:#fff;stroke:#1d1d1b;stroke-miterlimit:10;stroke-width:9px"/><path d="M321.4,800.7c-9.6,11.3-16.8,24.2-20.2,37.8-1.9,7.4-2.9,15.1-6.7,21.6s-8.9,9.9-14.1,14c-19.9,15.5-32.1,39.7-34.7,65.2-3.1,30.2,20.6,54.2,40.9,73.4,34.1,32.2,83.2,49.2,129.3,40.9,47.7-8.7,83.7-44,101.8-87.6,7.3-17.5,9.9-40.8,7.7-59.7-2.1-17.2-12.1-33.2-16-50.3-4.8-20.7-6.5-43.5-20-60.1-10.3-12.7-15.7-19.6-32-27.3-20-9.4-39.3-13.6-61.7-10.4C368.6,762,340.3,778.3,321.4,800.7Z" style="fill:#fff;stroke:#1d1d1b;stroke-miterlimit:10;stroke-width:9px"/><path d="M354,867.9c-7.6-15.5-33.1-33.6-51.6-30.8s-19,26-30.3,36.1c-13.7,12.3-21.7,19-38.7,41.5-7.4,9.8-20.1,29.5-22.2,37.9-3.8,15.9,5.1,18.8,22.2,17,2.6-.3,5.2-.5,5.5,2.1s.6-1.1,0,0c-4,6.6.7,15.7,7.7,18.9s15.1,2,22.6.2c32.3-7.6,62.6-26.7,79.2-55.4C360.2,915.1,364.4,889,354,867.9Z" style="fill:#1d1d1b"/><path d="M246.4,907.4c-7.8,10.4-16.5,22.2-21,34.5-6.7,17.9,9.8,20.5,24.1,17.5a111.1,111.1,0,0,0,44.1-20c-2.6,6.2-8,10.9-13.8,14.3s-12.3,5.6-18.4,8.4-11.5,11.3-5,16.8c4.6,3.9,15.8-3.4,20.3-4.7a166.1,166.1,0,0,0,57.5-30.9c6.2-5.2,12.2-11.1,15.5-18.5,7.4-16.1,4.7-37.5,9.3-54.9,1.3-5.2,2.7-10.7,1.7-16-6.6-36.9-45.7-27.5-63.8-8.1S261.9,886.9,246.4,907.4Z" style="fill:#fff"/><path d="M457.1,980c6-.2,11.9-.7,17.7-1.2,11.7-1,24.9-2.7,32.1-12,16.9-21.8,12.7-64.5,4.3-88.6-2.4-7-5.5-13.9-6.7-21.3-4.3-24.3-3.8-38.8-18.9-59-7.7-10.3-20.1-17.3-32.9-17.3-17.3,0-19.7,11.1-30.9,19.5-9,6.7-18.7,9.2-28.3,15s-13.2,14.3-15.1,23.8c-3.2,15.5,2.5,28.2,2.6,43.1.1,7.5-2.1,14.8-2.8,22.2-2.4,24.1,8.3,47.8,26.9,63.2C419.5,979.1,438.6,980.8,457.1,980Z" style="fill:#e25e43"/><circle cx="416.5" cy="841.7" r="21.7" style="fill:#1d1d1b"/><circle cx="413.8" cy="831.1" r="6.2" style="fill:#fff"/><path d="M480.2,857.4a18.4,18.4,0,0,0,6.7,3.4,15.1,15.1,0,0,0,5.2.5,19,19,0,0,0,5.7-1.8c7.4-3.2,20.2-8.3,25-15.1,6.1-8.6,2.2-17.4-6.8-20.7s-13.1-4-21.5-3.8-15.6-.5-19.4,8S472.1,850.8,480.2,857.4Z" style="fill:#fff;stroke:#1d1d1b;stroke-miterlimit:10;stroke-width:9px"/><path d="M1164.3,965.9c-2.1-3.6.9-8.2,4.4-10.5a21.8,21.8,0,0,1,14.3-3.3c4.6.6,9,2.8,13,5.2a56.3,56.3,0,0,1,12.3,9.9,40.7,40.7,0,0,1,10.2,22.8c.1.5,0,1.1-.5,1.2s-.4-.9-.1-.6" style="fill:none;stroke:#1d1d1b;stroke-linecap:round;stroke-linejoin:round;stroke-width:7px"/><path d="M1242.6,985.4l-.9,1.8c-.2-7.3-1.1-14.7-4.2-21.3-5.5-11.7-26.4-26.7-39.7-18.2,11.4-4.1,23.6-3.7,34.1,2.1a43.1,43.1,0,0,1,20.9,28.1" style="fill:none;stroke:#1d1d1b;stroke-linecap:round;stroke-linejoin:round;stroke-width:7px"/><path d="M1139.9,880.2c-1.4,3.8-.6,8.1.9,12,9.5,25.8,41.7,37.8,51.1,63.7" style="fill:none;stroke:#1d1d1b;stroke-linecap:round;stroke-linejoin:round;stroke-width:7px"/><path d="M1174.5,872.8a109.5,109.5,0,0,0,40.1,67c4.5,3.5,9.6,7.1,11.2,12.6l-2.3-1.3" style="fill:none;stroke:#1d1d1b;stroke-linecap:round;stroke-linejoin:round;stroke-width:7px"/><path d="M1219.7,750.2c13.2-7.2,23.2-28.5,18.7-43.4-5.1-16.5-19.6-32.9-32.8-43-11.6-8.8-24.5-15.8-36.7-23.7a272.4,272.4,0,0,1-85.4-89.1c-10.6-17.9-19.1-37-30.2-54.6-3.7-6-7.8-11.9-13.7-15.7-2.1-1.4-4.9-2.4-7-1s-1.9,3.8-1.8,6c.5,23.5,9.1,46,17.6,68a108.8,108.8,0,0,0-27.8-39.6c-2.7-2.4-6.9-4.7-9.7-2.4-1.3,1.1-1.7,2.9-2,4.6a71.3,71.3,0,0,0,11.6,52.7,75.1,75.1,0,0,0-21.8-17.4c-4-2.1-9.9-3.3-12,.6-.9,1.6-.7,3.5-.5,5.3,2.8,17.9,16,32,26.7,46.6,1,1.4,2.1,3,2,4.8-.3,4.7-7.1,4.9-11.5,6.9s-7.2,8.3-6.6,13.7,3.4,10.2,6.3,14.8a286.8,286.8,0,0,0,23.7,32.2c21.5,25.2,47.4,47,77.2,61.4s63.6,21.5,96.5,17.6C1207.1,754.7,1213.8,753.4,1219.7,750.2Z" style="fill:#fff;stroke:#1d1d1b;stroke-miterlimit:10;stroke-width:7px"/><path d="M1357.9,654.2a101,101,0,0,0-128.7-62.6c-27.8,9.6-50.1,30.9-67.7,54.4s-31.5,49.7-48.3,73.8c-11.7,16.9-25.5,33.2-44,42.2-25.2,12.3-55.1,9.1-82.2,1.9a310,310,0,0,1-83.5-36.2c-9.8-6.1-20.6-13-31.8-10.7a16.3,16.3,0,0,0,11.5,14.4c-4.1,1.6-5.5,7.1-3.9,11.3s5.1,7.2,8.6,9.8c24.8,18,53.3,30.8,82,41.4,7.8,2.8,15.6,5.6,23.6,8s10.1,2.2,13.6,8.6c7.2,13.1,15.3,25.2,25.8,36,20.5,21.3,46.8,36.8,74.9,45.9,45,14.6,93.9,13.6,140.4,4.9,4.8-.9,9.5-1.9,14.2-3.2,56.4-16.5,95.3-84,97.2-140.2.8-23-3.6-46-3.3-69,.1-11.5,1.3-23.2-1.2-34.4a53,53,0,0,0-8.5-19.3" style="fill:#fff;stroke:#1d1d1b;stroke-miterlimit:10;stroke-width:7px"/><path d="M1235.1,673.5c-2.4,6.6-2.8,13.2-4.3,19.8s-5.9,14.1-9.5,21a41.4,41.4,0,0,0-3.8,9.2c-1.8,8.3,1.9,16.8,2.2,25.3.4,12.6-6.4,24.9-12.5,35.4s-7.9,17.5-5,30.9c2.2,10,5.8,20,12.6,27.8,12.4,14.4,32.7,18.5,51.6,21,12.3,1.6,25.4,2.7,36.9-2s18.1-12.6,24.7-21.4a154,154,0,0,0,29.8-98.7c-.9-17.8-5-35.3-4.2-53,.4-8.1,1.8-16.1,1.1-24.1-1-12.5-7-24.1-12.8-35.3-7.8-15.2-15.9-15-29.9-7.9-8.1,4-16.5,3.6-24.8,6a102,102,0,0,0-20.5,9.2A70.4,70.4,0,0,0,1235.1,673.5Z" style="fill:#e25e43"/><path d="M1351.4,630.7c4-1.3,8.2-.7,12.6-.3,10.5,1,21.5,2.9,29.9,9.4,2.9,2.2,5.6,5.3,5.8,8.9s-3.1,7.9-6.4,10.6c-7.2,5.7-15.8,9.5-24.4,13.1-4.8,2-9.7,4-14.9,4.5a6.6,6.6,0,0,1-3.4-.2,7.5,7.5,0,0,1-2.9-2.4,32.7,32.7,0,0,1-7.9-20c-.3-7.2,1.5-17.9,8.1-22A10.9,10.9,0,0,1,1351.4,630.7Z" style="fill:#fff;stroke:#1d1d1b;stroke-miterlimit:10;stroke-width:7px"/><path d="M1295.4,677.5c11.2-.8,20.6-10.5,16-23.7-10.3-29.4-55.6,6.5-27.3,21.3A20.2,20.2,0,0,0,1295.4,677.5Z" style="fill:#1d1d1b"/><path d="M1305.6,651.1c-1.3-2.9-4.6-6.4-8.1-5.9a5.4,5.4,0,0,0-4.4,4.3c-.7,3.6,1,8.5,4.2,10.5s7.1,1,8.6-1.9S1306.6,653.3,1305.6,651.1Z" style="fill:#fff"/><path d="M1188.2,701.1a494.7,494.7,0,0,1-174.1-107.4c-9.6-9.2-18.9-18.8-29.4-27-6.3-5-15.1-9.6-21.9-5.3-3,2-4.8,5.3-5.8,8.7-4.2,14.5,5,29.1,13.8,41.3-5.5-2.6-12.4,1-15.1,6.5s-1.9,11.9,0,17.7a49.4,49.4,0,0,0,18.2,24.9c-3.2-1.6-6.5-3.2-10.1-3.4s-7.5,1.4-8.9,4.7a11.8,11.8,0,0,0-.3,5.9c1.2,8.3,5.6,15.6,11.2,21.8s15,10,19.8,16.2,1.9,12.7,5.1,19.3,11.1,13.8,18.6,17.9c23.1,12.4,51.3,11.9,74.8,23.7,7.6,3.9,14.6,8.9,22.5,12.1a82.3,82.3,0,0,0,16.2,4.3c25.1,4.6,66.5,10.5,85.5-11.2a46.2,46.2,0,0,0,10.9-32.5c-.3-7.7.3-22.2-4.6-28.8S1196.3,704,1188.2,701.1Z" style="fill:#1d1d1b"/><path d="M1188.7,701c-62.1-20.3-119.5-52.6-167.2-94.1-9.3-8.1-18.2-16.5-28.2-23.7-6.1-4.4-14.6-8.4-21.1-4.6a12.9,12.9,0,0,0-5.6,7.6c-4,12.7,4.9,25.5,13.3,36.2-5.3-2.3-12,.9-14.5,5.7s-1.8,10.5,0,15.5a44,44,0,0,0,17.5,21.9c-3.1-1.4-6.3-2.9-9.7-3.1s-7.3,1.3-8.6,4.2a8.9,8.9,0,0,0-.3,5.1c1.2,7.4,5.4,13.7,10.7,19.1s14.5,8.8,19.1,14.3,1.8,11.1,4.9,16.9,10.6,12.1,17.8,15.6c22.2,10.9,49.3,10.5,71.9,20.9,7.3,3.3,14,7.8,21.5,10.5a84.5,84.5,0,0,0,15.6,3.8c24.2,4.1,63.9,9.2,82.2-9.8a38.6,38.6,0,0,0,10.5-28.5c-.4-6.7.2-19.4-4.4-25.2S1196.5,703.6,1188.7,701Z" style="fill:#fff"/><path d="M1867.6,639.9c-.2-1.5-2,.7-1.5,2.1,1.7,4.3,3.3,8.6,5.1,12.9,14.8,34.6,40.4,63.8,54.1,98.8" style="fill:none;stroke:#1d1d1b;stroke-miterlimit:10;stroke-width:7px"/><path d="M1929.5,640.7c4.4,13.9,16.2,23.8,27,33.5a396,396,0,0,1,64.3,74.8c2.1,3.2,4.2,7.2,2.6,10.6" style="fill:none;stroke:#1d1d1b;stroke-miterlimit:10;stroke-width:7px"/><path d="M1976.8,761.1c-7.5-3.2-13.3-9.8-21.1-12.2-5.9-1.8-12.2-.9-18.4-1.6s-12.5-3-18.5-5.3c-11.8-4.4-22.1-11.1-35-10.2-4.8.4-10.4,2.1-11.9,6.7a29.9,29.9,0,0,1,33.5-1.2c10.4,6.5,17.2,17.3,22,28.6" style="fill:none;stroke:#1d1d1b;stroke-miterlimit:10;stroke-width:7px"/><path d="M1950.9,713.8c7.2,11.3,15.9,5.9,26,5.6s22.2,8.2,34.1,8.2a44.3,44.3,0,0,0,18.9-4.3c4.2-2.1,8.3-4.8,13-5,8.9-.3,15,8.6,22.1,14,1.4,1.1,3.1,2.1,4.8,1.6" style="fill:none;stroke:#1d1d1b;stroke-miterlimit:10;stroke-width:7px"/><path d="M1981.6,720.7a17.2,17.2,0,0,1,6.4-.1c9.9,1.5,18.7,7.8,25,15.5s10.5,17.1,14.1,26.5c1,2.4,1.9,5.1,1.2,7.7" style="fill:none;stroke:#1d1d1b;stroke-miterlimit:10;stroke-width:7px"/><path d="M1714.9,453.1h-1.1" style="fill:none;stroke:#1d1d1b;stroke-miterlimit:10"/><path d="M2263.8,438.8c-3.6,2.6-8.3,3.4-12.3,5.1,7.3,1.5,43.8-5.2,44.2,8.5,0,1.9-1.4,3.6-2.8,4.9-4.8,4.5-18,8.8-20.4,15.1-1.1,3,3.7,4.5,6.3,6.4,5.5,3.9,1.9,13.2-4.1,16.4s-13.2,3.2-19.2,6.4c5.5-1.7,9.3,6.9,5.9,11.5s-9.9,5.3-15.6,5.3-12-.4-16.6,3c2.4,5.4-2.9,11.2-8.1,14a53,53,0,0,1-38.4,5c3,3.8.1,9.7-4,12.2s-9.1,3.1-13.5,5.2c-7.7,3.7-12.5,11.5-19.2,16.7s-18.4,6.9-22.6-.6c-7.6,16.4-27.7,25.8-45.2,21.1-.7,11.6-13.5,20.8-24.7,17.8-2.2-.6-4.5-1.6-6.8-1.2s-4.6,2.9-6.4,5c-4.9,6.2-12,12.5-19.6,10.6-3.2-.8-5.9-2.9-9-3.6-5.7-1.2-11.1,2.5-16.5,4.4-10.1,3.6-21.3,1.1-31.5-2.1s-20.1-7.4-26.9-15.2c-10.3-11.8-11-29.1-8.6-44.6,4.9-31,20-59.3,36.5-86,6.8-11,13.4-28.4,24.5-35.4,15.2-9.5,35.5-12.8,52.8-16.3l4.4-.9c31.4-6.3,63.1-11.3,94.9-15.1,6.9-.8,14.1-1.5,20.7.6l-9.6,8.9c15.2,1.2,31.8-7.1,46.9-9.5,5.5-.8,11.9-1.2,15.8,2.7a2.4,2.4,0,0,1,1,1.8c0,.9-.8,1.6-1.5,2.1a27.2,27.2,0,0,1-6.1,4.1,25.9,25.9,0,0,0,11.7,4.6,55.7,55.7,0,0,0,10,.3l24.1-.7c2.9,0,6-.1,8.6,1.2s4.5,4.5,3.5,7.3A9.3,9.3,0,0,1,2263.8,438.8Z" style="fill:#1d1d1b"/><path d="M2160.6,429.7c3.8-.5,7.5-1.2,11.3-2,8.1-1.7,21.9-9.9,30-6.7,2.6,1,4.5,4,3.4,6.5s43.9,4.6,46.7,4.7c.9,2.9-2.6,5.1-5.4,6.2l-15.5,5.6a5.9,5.9,0,0,0-1.9,1.1c-1.2,1.3-.7,3.5.6,4.6s3,1.5,4.7,1.7c10.5,1.4,21.4-.8,31.9-.8,8.1,0,17.2-4.4,25-1-2.4,6.9-15,12.5-21.3,15.4-2.9,1.3-6,2.6-8.1,4.9s-3,6.3-1,8.7,8.5,2.2,11,5.5c11.4,15.5-30.8,16.7-35.9,20.1a3.7,3.7,0,0,0-1.6,1.9c-1.8,6.5,15.3.6,16.6,5,3.2,10.8-49.2,7.8-51.8,8.1.4,2.8,3.7,4.3,6.5,4.6.3.1,13.7,3.2,10.7,5.9-16.9,15.1-47.3,11.6-66.3,3a124,124,0,0,1,18.8,6.8c2.8,1.2,5.9,2.9,6.9,5.8s.1,5.2-1.1,7.4c-5.2,9.8-16.7,14.6-24.9,21.4-2.3,1.9-4.8,3.9-7.7,4.8-5.2,1.6-11-.5-15-4.1s-6.8-8.5-9.4-13.3l-9.3-17c-8.2,14.6,5,29-7,43-5.6,6.5-18.2,7.4-21.8-.4-2.1-4.5-.5-9.7-.9-14.7s-4.9-10.5-9.4-8.2c-1.7.8-2.7,2.6-3.5,4.3-4.5,9.4-6,20.1-10.8,29.4a46.6,46.6,0,0,1-38,24.7c-12.2.7-28,4-38.8-1.4s-20.2-18.5-24-30.8c-5-15.7-3.9-32.8-.8-49,5.8-30.5,18.3-59.3,31.1-87.7,4.3-9.6,11.3-22.9,23.4-23.5,8.2-.3,13.4,4.7,21.6,3.9,10.2-1,20.5-3.2,30.7-4.7q31.8-4.5,63.6-7.5c5.8-.5,11.8-1,17.3,1a23.5,23.5,0,0,1-4.7,8.3A138.7,138.7,0,0,0,2160.6,429.7Z" style="fill:#fff"/><path d="M1861.1,649.9c5.8-11.7,5.5-33.2-12.5-23-12.7,7.3-20.8,21-29.2,32.5a256.4,256.4,0,0,0-30.3,54.4c-2.1,5.1-3.6,11.9.8,15.3l16.4-17.7c2,2.9.6,6.9.1,10.4s1.8,8.4,5.3,7.5a6.6,6.6,0,0,0,3-2.3C1834.5,704.3,1847.9,676.9,1861.1,649.9Z" style="fill:#fff;stroke:#1d1d1b;stroke-miterlimit:10;stroke-width:7px"/><path d="M2082.1,559a118.2,118.2,0,0,1-17.4,60.7c-20.3,32.9-57.3,52.9-94.9,58.7-69.1,10.7-152-21.6-167.1-96.5-6.1-30.3-.5-54.7,16.4-79.1,14.8-21.4,22.8-46.7,37.2-68.3,9.6-14.5,23.6-27.8,34.9-41.2,26.9-31.8,70.2-49.9,111.7-42.5,32.5,5.8,60.6,26.2,60,61.6-.2,16.7-4.8,33.3-3.7,50.1,1.5,23.9,14.2,45.5,19.8,68.8A123.2,123.2,0,0,1,2082.1,559Z" style="fill:#fff;stroke:#1d1d1b;stroke-miterlimit:10;stroke-width:7px"/><path d="M2012.8,382.9c11.7,8.7,29.6,9.3,38.9,20.6s8,31,8.9,44.8c3.4,53.5,52.1,128-22.7,155-43.4,15.6-98.6,15.4-134-16.6-13.9-12.7-25.6-31.5-20.2-49.5,2.9-9.5,10-17.1,17.4-23.6s15.5-12.6,21.3-20.7,8.8-18.9,5-28c-3.1-7.2-9.7-12.1-15.2-17.6a17.6,17.6,0,0,1-4.1-5.7c-2.5-6.6,2.8-13.9,9.2-16.7s13.8-2.3,20.9-2.7,14.6-2.2,18.8-7.9c14.5-19.3,18.7-57.2,53.2-33.3Z" style="fill:#e25e43"/><path d="M1986.6,398.8a18.8,18.8,0,0,0-10.3,4.7c-7.4,6.7-7.6,19.8-1.5,27.4a24.2,24.2,0,0,0,15.8,8.4,15.7,15.7,0,0,0,9.1-1.5c6.8-3.7,10.3-14.2,9.2-21.5a21.1,21.1,0,0,0-12.5-16.3A20.5,20.5,0,0,0,1986.6,398.8Z" style="fill:#1d1d1b"/><path d="M1979.8,406.4a4.9,4.9,0,0,1,2.4-2.9c1.8-.9,4.2-1,5.5.4a8.6,8.6,0,0,1,1.9,5.8,5.3,5.3,0,0,1-5,4.4C1980.6,414.2,1978.7,409.7,1979.8,406.4Z" style="fill:#fff;stroke:#1d1d1b;stroke-miterlimit:10"/><path d="M1876.6,475c10.3-2.5,16.9-12.7,24-20.2,10.7-11.2-35.9-14.4-41.6-14.8a179.6,179.6,0,0,1-59.4-15.3c-17.9-8.1-33-20.1-52-26.4-2.2-.7-4.7-1.4-7-.8-10.7,3-3,17.1-6.1,23.6-5.5,11.5-16.1-2.9-21-7.1-2.7-2.3-6.3-3.9-9.6-2.9s-6.7,7.2-6.2,12.1a22.8,22.8,0,0,0,9.8,16.6c1.9,1.2,4,2.2,5.4,4s1.9,4.6.3,6.1a5.8,5.8,0,0,1-3.2,1.3c-6.7,1-17.2,0-23.7-1.9-4.1-1.1-7.4-4.3-11.1-6.3s-9.1-2.7-11.9.5-1.8,6.3-.2,9.2,4.2,4.8,6.8,6.8l8.5,6.5c1.6,1.3,3.3,2.6,4.1,4.5,5.1,11.9-43.4,18.7-51.1,19.3-4.4.3-10.1,1.5-10.7,5.9a6.6,6.6,0,0,0,1.1,4.3c5.1,8.9,17.8,8.5,28,6.8a54.3,54.3,0,0,0-16.7,9.9,21.7,21.7,0,0,0,23.9,13c-3.7,1.1-7.4,2.1-10.4,4.5s-4.8,6.6-3.4,10.1,6.1,5.6,10.2,6c12.3,1.1,24.1-4.6,35.1-10.1-6.9,3-15.1,8.3-13.5,15.6,1.2,5,6.9,7.9,12,7.4s9.6-3.3,13.8-6.2c-7.9,3.2-11.1,14.6-5.7,21.2s17.9,5,21.1-2.9c-5.7,4.6-5.6,14.6.2,19s15.5,2,18.5-4.7c-2.7,7.9,2.7,17.5,10.8,19.3s17.1-4.7,18-12.9c-2.4,9.1,2.6,20.1,11.7,22.8s20-5.6,18.4-15c1.4,5.3,2.9,10.9,6.8,14.7s11.1,4.7,14.6.5c2-2.5,2.2-6.1,2.1-9.4-.7-27.1-10.8-54.7-2.9-80.5C1822.7,501.7,1849.4,483.8,1876.6,475Z" style="fill:#1d1d1b"/><path d="M1874.6,475.7c10.9-3.6,33.3-24.3,8.5-25.5-16.9-.8-33-4.4-49.3-9.3-25.7-7.7-53.6-14.9-75.2-31.7-3.5-2.7-7.5-5.9-11.9-5.1s-7.6,7.2-6.5,12.2c1.9,8.1,11,17.4,18.5,20.6L1710,426.7c.2,6.1,4.2,11.5,9.4,14.7s11.2,4.2,17.3,4.4a305.5,305.5,0,0,1-58.4,10.3c3.5,9.9,16.3,12,26.8,12.5a127.8,127.8,0,0,1-60.8,21c-4.2.3-9.6,1.5-10.1,5.6a6.6,6.6,0,0,0,1,4.1c4.8,8.4,16.8,8,26.3,6.4a49.4,49.4,0,0,0-15.7,9.4c3.5,8.6,13.4,14.1,22.5,12.3-3.4.9-7,2-9.7,4.2s-4.6,6.2-3.3,9.6,5.8,5.2,9.7,5.6c11.5,1.1,22.5-4.3,32.8-9.6-6.4,2.8-14.1,7.9-12.5,14.8,1,4.8,6.4,7.4,11.2,7s9-3.1,12.9-5.9c-7.4,3.1-10.4,13.9-5.3,20s16.8,4.7,19.8-2.7c-5.4,4.3-5.3,13.8.2,18s14.6,1.9,17.3-4.5c-2.5,7.5,2.6,16.6,10.3,18.2s16-4.3,16.8-12.2c-2.2,8.7,2.4,19.1,11,21.6s18.8-5.3,17.3-14.1c1.3,5,2.7,10.2,6.4,13.8s10.4,4.5,13.7.5c1.9-2.4,2.1-5.8,2-8.9-.7-25.5-10.2-51.6-2.8-76.1S1849,483.9,1874.6,475.7Z" style="fill:#fff"/><path d="M2189.7,655.5a1.2,1.2,0,0,1-2,1" style="fill:none"/><path d="M2059.2,436.8c3.7,2.1,6,5.7,8.6,9.2,6.3,8.6,12.1,18.1,12.9,28.6.2,3.7-.3,7.7-3,10.3s-7.9,2.9-12.1,2.2c-9.1-1.6-17.6-5.5-25.9-9.5-4.7-2.3-9.5-4.6-13.3-8.2a6.8,6.8,0,0,1-2.1-2.7,7.8,7.8,0,0,1-.2-3.7,33.2,33.2,0,0,1,9.8-19.3c5.2-5,14.4-10.6,21.8-8.5A12.5,12.5,0,0,1,2059.2,436.8Z" style="fill:#fff;stroke:#1d1d1b;stroke-miterlimit:10;stroke-width:7px"/><path d="M3428,639.9c-.3-1.5-2,.7-1.5,2.1,1.7,4.3,3.3,8.6,5.1,12.9,14.7,34.6,40.4,63.8,54.1,98.8" style="fill:none;stroke:#1d1d1b;stroke-miterlimit:10;stroke-width:7px"/><path d="M3489.9,640.7c4.4,13.9,16.2,23.8,27,33.5a395.5,395.5,0,0,1,64.2,74.8c2.2,3.2,4.3,7.2,2.7,10.6" style="fill:none;stroke:#1d1d1b;stroke-miterlimit:10;stroke-width:7px"/><path d="M3537.1,761.1c-7.4-3.2-13.2-9.8-21-12.2-5.9-1.8-12.3-.9-18.4-1.6s-12.5-3-18.5-5.3c-11.8-4.4-22.1-11.1-35-10.2-4.8.4-10.4,2.1-11.9,6.7a29.9,29.9,0,0,1,33.5-1.2c10.3,6.5,17.2,17.3,22,28.6" style="fill:none;stroke:#1d1d1b;stroke-miterlimit:10;stroke-width:7px"/><path d="M3511.3,713.8c7.2,11.3,15.9,5.9,26,5.6s22.2,8.2,34.1,8.2a43.5,43.5,0,0,0,18.8-4.3c4.3-2.1,8.4-4.8,13.1-5,8.9-.3,14.9,8.6,22.1,14,1.4,1.1,3.1,2.1,4.8,1.6" style="fill:none;stroke:#1d1d1b;stroke-miterlimit:10;stroke-width:7px"/><path d="M3542,720.7a17.2,17.2,0,0,1,6.4-.1c9.9,1.5,18.6,7.8,25,15.5s10.5,17.1,14.1,26.5c.9,2.4,1.9,5.1,1.2,7.7" style="fill:none;stroke:#1d1d1b;stroke-miterlimit:10;stroke-width:7px"/><path d="M3275.2,453.1h-1" style="fill:none;stroke:#1d1d1b;stroke-miterlimit:10"/><path d="M3824.1,438.8c-3.5,2.6-8.2,3.4-12.3,5.1,7.4,1.5,43.9-5.2,44.2,8.5.1,1.9-1.4,3.6-2.8,4.9-4.7,4.5-17.9,8.8-20.3,15.1-1.2,3,3.6,4.5,6.3,6.4,5.5,3.9,1.8,13.2-4.1,16.4s-13.2,3.2-19.2,6.4c5.5-1.7,9.3,6.9,5.9,11.5s-9.9,5.3-15.7,5.3-11.9-.4-16.5,3c2.4,5.4-2.9,11.2-8.2,14a52.6,52.6,0,0,1-38.3,5c2.9,3.8.1,9.7-4,12.2s-9.2,3.1-13.5,5.2c-7.7,3.7-12.5,11.5-19.3,16.7s-18.3,6.9-22.5-.6c-7.6,16.4-27.8,25.8-45.2,21.1-.7,11.6-13.5,20.8-24.7,17.8-2.3-.6-4.6-1.6-6.9-1.2s-4.6,2.9-6.3,5c-4.9,6.2-12,12.5-19.6,10.6-3.2-.8-5.9-2.9-9.1-3.6-5.6-1.2-11,2.5-16.4,4.4-10.1,3.6-21.3,1.1-31.6-2.1s-20-7.4-26.8-15.2c-10.3-11.8-11.1-29.1-8.6-44.6,4.8-31,20-59.3,36.5-86,6.8-11,13.4-28.4,24.5-35.4,15.2-9.5,35.5-12.8,52.8-16.3l4.4-.9c31.4-6.3,63.1-11.3,94.9-15.1,6.9-.8,14.1-1.5,20.7.6l-9.7,8.9c15.2,1.2,31.9-7.1,47-9.5,5.5-.8,11.8-1.2,15.8,2.7a2.7,2.7,0,0,1,1,1.8,3.2,3.2,0,0,1-1.5,2.1,27.8,27.8,0,0,1-6.2,4.1,26.8,26.8,0,0,0,11.8,4.6,55.7,55.7,0,0,0,10,.3l24-.7c3,0,6-.1,8.7,1.2s4.5,4.5,3.4,7.3A8.2,8.2,0,0,1,3824.1,438.8Z" style="fill:#1d1d1b"/><path d="M3721,429.7c3.8-.5,7.5-1.2,11.2-2,8.2-1.7,22-9.9,30.1-6.7,2.5,1,4.5,4,3.4,6.5s43.8,4.6,46.7,4.7c.9,2.9-2.6,5.1-5.5,6.2l-15.4,5.6a6.4,6.4,0,0,0-2,1.1c-1.2,1.3-.7,3.5.6,4.6a8.2,8.2,0,0,0,4.8,1.7c10.4,1.4,21.3-.8,31.8-.8,8.1,0,17.3-4.4,25.1-1-2.4,6.9-15,12.5-21.3,15.4-2.9,1.3-6,2.6-8.2,4.9s-3,6.3-.9,8.7,8.5,2.2,10.9,5.5c11.5,15.5-30.8,16.7-35.8,20.1a3.7,3.7,0,0,0-1.6,1.9c-1.8,6.5,15.3.6,16.6,5,3.2,10.8-49.2,7.8-51.8,8.1.4,2.8,3.6,4.3,6.5,4.6.3.1,13.7,3.2,10.7,5.9-16.9,15.1-47.3,11.6-66.3,3a128,128,0,0,1,18.8,6.8c2.8,1.2,5.9,2.9,6.9,5.8a9.6,9.6,0,0,1-1.1,7.4c-5.2,9.8-16.7,14.6-24.9,21.4-2.4,1.9-4.8,3.9-7.7,4.8-5.2,1.6-11-.5-15.1-4.1s-6.7-8.5-9.3-13.3l-9.4-17c-8.1,14.6,5.1,29-6.9,43-5.7,6.5-18.2,7.4-21.8-.4-2.1-4.5-.5-9.7-.9-14.7s-5-10.5-9.4-8.2c-1.7.8-2.7,2.6-3.5,4.3-4.5,9.4-6,20.1-10.8,29.4a46.9,46.9,0,0,1-38.1,24.7c-12.1.7-28,4-38.8-1.4s-20.1-18.5-24-30.8c-4.9-15.7-3.8-32.8-.7-49,5.8-30.5,18.3-59.3,31-87.7,4.3-9.6,11.4-22.9,23.5-23.5,8.2-.3,13.4,4.7,21.5,3.9,10.3-1,20.6-3.2,30.8-4.7q31.7-4.5,63.6-7.5c5.8-.5,11.8-1,17.3,1a23.5,23.5,0,0,1-4.7,8.3A139.4,139.4,0,0,0,3721,429.7Z" style="fill:#fff"/><path d="M3421.5,649.9c5.7-11.7,5.4-33.2-12.5-23-12.7,7.3-20.9,21-29.2,32.5a252,252,0,0,0-30.3,54.4c-2.1,5.1-3.6,11.9.7,15.3l16.4-17.7c2.1,2.9.6,6.9.2,10.4s1.8,8.4,5.2,7.5a6.4,6.4,0,0,0,3.1-2.3C3394.8,704.3,3408.3,676.9,3421.5,649.9Z" style="fill:#fff;stroke:#1d1d1b;stroke-miterlimit:10;stroke-width:7px"/><path d="M3642.4,559a117.1,117.1,0,0,1-17.3,60.7c-20.3,32.9-57.3,52.9-94.9,58.7-69.1,10.7-152.1-21.6-167.2-96.5-6.1-30.3-.4-54.7,16.5-79.1,14.8-21.4,22.8-46.7,37.1-68.3,9.7-14.5,23.7-27.8,35-41.2,26.9-31.8,70.2-49.9,111.7-42.5,32.5,5.8,60.6,26.2,60,61.6-.3,16.7-4.8,33.3-3.7,50.1,1.5,23.9,14.2,45.5,19.7,68.8A112.6,112.6,0,0,1,3642.4,559Z" style="fill:#fff;stroke:#1d1d1b;stroke-miterlimit:10;stroke-width:7px"/><path d="M3573.2,382.9c11.7,8.7,29.6,9.3,38.9,20.6s8,31,8.9,44.8c3.4,53.5,52.1,128-22.7,155-43.5,15.6-98.6,15.4-134-16.6-13.9-12.7-25.6-31.5-20.2-49.5,2.8-9.5,10-17.1,17.4-23.6s15.5-12.6,21.3-20.7,8.8-18.9,4.9-28c-3-7.2-9.6-12.1-15.1-17.6a16.3,16.3,0,0,1-4.1-5.7c-2.6-6.6,2.7-13.9,9.2-16.7s13.8-2.3,20.8-2.7,14.7-2.2,18.9-7.9c14.5-19.3,18.7-57.2,53.2-33.3Z" style="fill:#e25e43"/><path d="M3547,398.8a18.8,18.8,0,0,0-10.3,4.7c-7.4,6.7-7.7,19.8-1.5,27.4a24,24,0,0,0,15.8,8.4,15.9,15.9,0,0,0,9.1-1.5c6.8-3.7,10.2-14.2,9.2-21.5a21.1,21.1,0,0,0-12.5-16.3A20.5,20.5,0,0,0,3547,398.8Z" style="fill:#1d1d1b"/><path d="M3540.2,406.4a4.6,4.6,0,0,1,2.4-2.9c1.8-.9,4.2-1,5.5.4a8.6,8.6,0,0,1,1.9,5.8,5.3,5.3,0,0,1-5.1,4.4C3541,414.2,3539.1,409.7,3540.2,406.4Z" style="fill:#fff;stroke:#1d1d1b;stroke-miterlimit:10"/><path d="M3437,475c10.3-2.5,16.8-12.7,24-20.2,10.7-11.2-36-14.4-41.6-14.8a180.8,180.8,0,0,1-59.5-15.3c-17.9-8.1-32.9-20.1-51.9-26.4-2.3-.7-4.7-1.4-7-.8-10.7,3-3,17.1-6.1,23.6-5.6,11.5-16.1-2.9-21.1-7.1-2.6-2.3-6.2-3.9-9.5-2.9s-6.7,7.2-6.3,12.1a22.9,22.9,0,0,0,9.9,16.6c1.9,1.2,4,2.2,5.4,4s1.9,4.6.3,6.1a6.4,6.4,0,0,1-3.2,1.3c-6.7,1-17.2,0-23.7-1.9-4.2-1.1-7.4-4.3-11.2-6.3s-9-2.7-11.8.5-1.9,6.3-.3,9.2,4.3,4.8,6.8,6.8l8.6,6.5c1.6,1.3,3.3,2.6,4.1,4.5,5.1,11.9-43.4,18.7-51.1,19.3-4.4.3-10.1,1.5-10.7,5.9a7.2,7.2,0,0,0,1,4.3c5.1,8.9,17.9,8.5,28,6.8a54.3,54.3,0,0,0-16.7,9.9c3.7,9.2,14.3,15,24,13-3.7,1.1-7.5,2.1-10.4,4.5s-4.8,6.6-3.4,10.1,6.1,5.6,10.2,6c12.3,1.1,24-4.6,35-10.1-6.8,3-15,8.3-13.4,15.6,1.1,5,6.9,7.9,12,7.4s9.6-3.3,13.7-6.2c-7.8,3.2-11,14.6-5.6,21.2s17.8,5,21-2.9c-5.7,4.6-5.5,14.6.3,19s15.5,2,18.4-4.7c-2.6,7.9,2.8,17.5,10.9,19.3s17.1-4.7,18-12.9c-2.4,9.1,2.6,20.1,11.6,22.8s20.1-5.6,18.5-15c1.4,5.3,2.9,10.9,6.8,14.7s11.1,4.7,14.5.5c2.1-2.5,2.3-6.1,2.2-9.4-.7-27.1-10.8-54.7-2.9-80.5C3383.1,501.7,3409.8,483.8,3437,475Z" style="fill:#1d1d1b"/><path d="M3434.9,475.7c11-3.6,33.4-24.3,8.6-25.5-16.9-.8-33.1-4.4-49.3-9.3-25.7-7.7-53.7-14.9-75.2-31.7-3.5-2.7-7.6-5.9-12-5.1s-7.5,7.2-6.4,12.2c1.8,8.1,11,17.4,18.5,20.6l-48.7-10.2c.2,6.1,4.2,11.5,9.3,14.7s11.3,4.2,17.3,4.4a303.1,303.1,0,0,1-58.3,10.3c3.5,9.9,16.3,12,26.7,12.5a127,127,0,0,1-60.7,21c-4.2.3-9.6,1.5-10.1,5.6a6.6,6.6,0,0,0,1,4.1c4.8,8.4,16.8,8,26.3,6.4a48.3,48.3,0,0,0-15.7,9.4,20.7,20.7,0,0,0,22.5,12.3c-3.5.9-7,2-9.8,4.2s-4.5,6.2-3.2,9.6,5.7,5.2,9.6,5.6c11.6,1.1,22.6-4.3,32.9-9.6-6.4,2.8-14.1,7.9-12.6,14.8,1.1,4.8,6.5,7.4,11.2,7s9.1-3.1,13-5.9c-7.4,3.1-10.4,13.9-5.3,20s16.7,4.7,19.7-2.7c-5.3,4.3-5.2,13.8.3,18s14.5,1.9,17.3-4.5c-2.5,7.5,2.6,16.6,10.2,18.2s16.1-4.3,16.9-12.2c-2.3,8.7,2.4,19.1,10.9,21.6s18.9-5.3,17.4-14.1c1.3,5,2.7,10.2,6.4,13.8s10.4,4.5,13.6.5c2-2.4,2.1-5.8,2.1-8.9-.7-25.5-10.2-51.6-2.8-76.1S3409.4,483.9,3434.9,475.7Z" style="fill:#fff"/><path d="M3750.1,655.5a1.3,1.3,0,0,1-2.1,1" style="fill:none"/><path d="M3619.6,436.8c3.6,2.1,5.9,5.7,8.5,9.2,6.3,8.6,12.2,18.1,12.9,28.6.3,3.7-.2,7.7-2.9,10.3s-7.9,2.9-12.1,2.2c-9.1-1.6-17.6-5.5-25.9-9.5-4.7-2.3-9.5-4.6-13.3-8.2a6.8,6.8,0,0,1-2.1-2.7,6.7,6.7,0,0,1-.2-3.7,33.2,33.2,0,0,1,9.8-19.3c5.2-5,14.3-10.6,21.8-8.5A12.5,12.5,0,0,1,3619.6,436.8Z" style="fill:#fff;stroke:#1d1d1b;stroke-miterlimit:10;stroke-width:7px"/><path d="M2835.4,722.3c-3.2-2.7-2.1-8,.4-11.4a21.8,21.8,0,0,1,12.2-8.1c4.6-1.1,9.4-.6,14,.3a53.4,53.4,0,0,1,15.1,4.9,41,41,0,0,1,17.5,17.7c.2.5.4,1.1,0,1.3s-.8-.6-.3-.5" style="fill:none;stroke:#1d1d1b;stroke-linecap:round;stroke-linejoin:round;stroke-width:7px"/><path d="M2915.6,713l-.3,2c-2.7-6.8-6.2-13.4-11.4-18.5-9.3-9-34.1-15.7-43.6-3.1,9.2-7.8,20.8-11.8,32.7-10a42.6,42.6,0,0,1,29.4,18.9" style="fill:none;stroke:#1d1d1b;stroke-linecap:round;stroke-linejoin:round;stroke-width:7px"/><path d="M2782.4,650.6c0,4.1,2.3,7.8,5,10.9,18,20.8,52.4,20.7,70.3,41.6" style="fill:none;stroke:#1d1d1b;stroke-linecap:round;stroke-linejoin:round;stroke-width:7px"/><path d="M2812.1,631.5a110.1,110.1,0,0,0,61.1,48.6c5.5,1.7,11.5,3.3,15,7.8l-2.6-.3" style="fill:none;stroke:#1d1d1b;stroke-linecap:round;stroke-linejoin:round;stroke-width:7px"/><path d="M2801.5,470.3c49.4,12.3,42.9-47.7,42.3-74.7,0-36.4,9-88.5-5.9-122-3.9-8.9-9.7-16.9-12.9-26.1-4.6-13,13-104.5,1.9-105.1-2.1-.1-3.8,1.7-5.2,3.4-14.4,18.7-21.9,41.6-29.2,64a109.6,109.6,0,0,0,3.4-48.3c-.6-3.6-2.3-8.1-6-8a8.1,8.1,0,0,0-4.5,2.3,71.9,71.9,0,0,0-24.2,48.2,75,75,0,0,0-5.9-27.2c-1.8-4.1-5.6-8.8-9.7-7.1a8,8,0,0,0-3.7,3.8c-9.1,15.6-7.8,34.9-8.7,52.9-.1,1.8-.3,3.7-1.5,5.1-3.2,3.5-8.6-.7-13.2-1.9s-10.8,1.9-13.8,6.4-3.8,10.1-4.5,15.5a296.1,296.1,0,0,0-1.8,39.9c.7,33.1,7.1,66.4,21.1,96.4s35.8,56.8,63.9,74.5C2789,465.9,2795,469.1,2801.5,470.3Z" style="fill:#fff;stroke:#1d1d1b;stroke-miterlimit:10;stroke-width:7px"/><path d="M2964,404a101.1,101.1,0,0,0-128.7-62.6c-27.8,9.6-50.1,30.9-67.7,54.4s-31.5,49.7-48.3,73.8c-11.7,16.9-25.5,33.2-44,42.2-25.2,12.3-55.2,9.1-82.2,1.9a310.6,310.6,0,0,1-83.6-36.2c-9.7-6.1-20.5-13-31.7-10.7a16.2,16.2,0,0,0,11.5,14.4c-4.1,1.6-5.5,7.1-4,11.3s5.1,7.2,8.7,9.8c24.8,18,53.3,30.8,82,41.4,7.8,2.8,15.6,5.6,23.5,8s10.2,2.2,13.7,8.6c7.1,13.1,15.3,25.2,25.7,36,20.6,21.3,46.9,36.9,75,45.9,45,14.6,93.9,13.6,140.4,4.9,4.7-.9,9.5-1.9,14.2-3.2,56.3-16.5,95.2-84,97.2-140.2.7-23-3.6-46-3.4-69,.2-11.5,1.4-23.2-1.1-34.4a53,53,0,0,0-8.5-19.3" style="fill:#fff;stroke:#1d1d1b;stroke-miterlimit:10;stroke-width:7px"/><path d="M2841.1,423.3c-2.3,6.6-2.7,13.2-4.2,19.8s-6,14.1-9.5,21a37.2,37.2,0,0,0-3.8,9.2c-1.8,8.3,1.9,16.8,2.1,25.3.4,12.6-6.3,24.9-12.4,35.4s-7.9,17.5-5,30.9c2.2,10,5.8,20,12.6,27.8,12.4,14.4,32.7,18.5,51.5,21,12.4,1.6,25.4,2.7,37-2s18.1-12.6,24.7-21.4a154,154,0,0,0,29.8-98.7c-1-17.8-5-35.3-4.2-53,.4-8.1,1.7-16.1,1.1-24.1-1.1-12.5-7-24.1-12.8-35.3-7.8-15.2-15.9-15-30-7.9-8,4-16.4,3.6-24.8,6a101.2,101.2,0,0,0-20.4,9.2A71,71,0,0,0,2841.1,423.3Z" style="fill:#e25e43"/><path d="M2957.5,380.5c4-1.3,8.2-.7,12.6-.3,10.5,1,21.5,2.9,29.9,9.4,2.9,2.2,5.6,5.3,5.7,8.9s-3,7.9-6.3,10.6c-7.3,5.7-15.9,9.5-24.4,13.1-4.8,2-9.7,4-14.9,4.5a6.6,6.6,0,0,1-3.4-.2,7.5,7.5,0,0,1-2.9-2.4,32.1,32.1,0,0,1-7.9-20c-.3-7.2,1.5-17.9,8.1-22A10,10,0,0,1,2957.5,380.5Z" style="fill:#fff;stroke:#1d1d1b;stroke-miterlimit:10;stroke-width:7px"/><path d="M2901.5,427.3c11.2-.8,20.6-10.5,16-23.7-10.3-29.4-55.7,6.5-27.3,21.3A20,20,0,0,0,2901.5,427.3Z" style="fill:#1d1d1b"/><path d="M2911.7,400.9c-1.3-2.9-4.6-6.4-8.1-5.9a5.7,5.7,0,0,0-4.5,4.3c-.7,3.6,1.1,8.5,4.2,10.5s7.1,1,8.7-1.9S2912.7,403.1,2911.7,400.9Z" style="fill:#fff"/><path d="M2600.4,189.5c-8.1,2-9.3,8-9.9,14.7-.9,9.6-2.4,19.1-4.1,28.7-.4,2.7-1,5.7-3.2,7.3s-7.3.9-11,.6c-12.1-1-21.1,11-21.8,22.2-.2,4.2.5,8.4.9,12.6.7,8.6-2.4,17.4-11.4,20.1-6.1,1.8-12.7-1.1-18.7,1.8-7.7,3.8-7.1,10-3.8,17,4.2,9.2,11.4,17,17.3,25.1.6.9,11,19.5,8.6,19.1-6.2-.8-13-4.4-19-6.7-1.8-.7-3.8-1.4-5.7-1s-4,3-4.4,5.4.1,4.8.7,7.2c8.7,33.5,34.9,55.4,62.2,74.4a619.7,619.7,0,0,0,97.5,55.1c8.8,4,17.7,7.6,26.5,11.3,6.1,2.6,11,6.8,17.2,9.2,15.1,5.9,34.9,6.2,48.8-2.9,11.1-7.2,19.5-19.4,23.4-32.8,2.6-8.8,8.8-25,6.5-34.1-2.8-10.7-16-13.6-23-19.6-56.3-48.3-102.4-110.3-134.3-180.8-6.2-13.6-11.9-27.6-19.2-40.5C2616,195.2,2608.9,187,2600.4,189.5Z" style="fill:#1d1d1b"/><path d="M2774.4,424.3a501.7,501.7,0,0,1-83.4-85.8c-11.7-15.2-21.5-31.8-33-47.1s-17.5-36.6-23.7-54.7c-4.8-14.1-15.8-26.3-26.8-36.3-1.6-1.5-3.7-3.1-5.9-2.4s-2.6,2.6-3.2,4.3c-4.9,13.6-3.4,40.2-17.3,47.9-5.8,3.3-12.7,4.8-17.7,9.3-6.9,6.2-8.2,16.9-5.2,25.7,3.7,11,14,22.8,23.9,28.6-8.9-.8-16.7-6.3-25.4-8.4s-20.5,1.1-22.2,10.1c-.8,4.3,1,8.7,3,12.7,4.8,10.1,9.3,22,15.9,30.8,2.9,3.8,8.1,6.7,9.9,11s0,7.6-3.3,8.2c-1.7.4-3.5-.3-5.1-1-7.5-3.3-14.4-7.1-21.9-10.2-2.1-.9-4.7-1.7-6.5-.3s-1.1,5.3.2,7.8c11.6,21.4,31.5,37,51.4,51A902.9,902.9,0,0,0,2681,488.6c15.1,7.9,29.9,14.3,46.9,15.8,14.5,1.3,28.9,4.1,42.2-3.7,10.4-6.1,18.1-16.7,21.5-28.5,2.2-7.7,7.7-21.9,5.2-30S2781.3,429.8,2774.4,424.3Z" style="fill:#fff"/><path d="M4289.5,892.2c-2.7-3.3-.6-8.3,2.4-11.2a22,22,0,0,1,13.5-5.8c4.7-.2,9.3,1.1,13.7,2.8a52.5,52.5,0,0,1,14,7.5,40.3,40.3,0,0,1,14.1,20.5c.1.5.2,1.1-.2,1.3s-.7-.8-.3-.6" style="fill:none;stroke:#1d1d1b;stroke-linecap:round;stroke-linejoin:round;stroke-width:7px"/><path d="M4370.1,897.2l-.6,1.9c-1.5-7.1-3.8-14.2-8-20.1-7.5-10.6-30.8-21.6-42.3-10.9,10.4-6,22.5-7.9,33.9-4a42.7,42.7,0,0,1,25.6,23.8" style="fill:none;stroke:#1d1d1b;stroke-linecap:round;stroke-linejoin:round;stroke-width:7px"/><path d="M4250,812.3c-.7,4,.9,8.1,3,11.6,14.1,23.7,48,29.6,61.9,53.4" style="fill:none;stroke:#1d1d1b;stroke-linecap:round;stroke-linejoin:round;stroke-width:7px"/><path d="M4282.7,798.7a110.2,110.2,0,0,0,51.5,58.7c5.1,2.6,10.8,5.2,13.3,10.3l-2.4-.8" style="fill:none;stroke:#1d1d1b;stroke-linecap:round;stroke-linejoin:round;stroke-width:7px"/><path d="M4538.8,659.2c-.8-25.9-12.6-51.7-32.2-69.9a107.2,107.2,0,0,0-73.3-28.3c-29.7.3-57.6,13.1-81.7,29.5-22.4,15.2-37.6,34.4-63.6,45.5a170.6,170.6,0,0,1-77.5,13.4,175.6,175.6,0,0,1-88.4-31.4c-19.7-13.9-45-51.6-71-51,1.1,7.6,7.9,13.7,9.3,20.6-15.6.5-19.3,10.9-7.2,21.5l-8.2.7c.8-.1,25.7,35.5,29.1,39.1a192.5,192.5,0,0,0,43.5,33.1c12.7,7.1,30.4,10.1,39,21.7,10.5,14.2,10.8,35.1,20.9,50.1a192.3,192.3,0,0,0,48.4,48.9c39.2,27.6,86.7,41.8,134.2,48.2a141.5,141.5,0,0,0,14.6,1.4c59.4,2.3,117.2-48.3,135.9-99.9,7.6-21.2,10.3-43.8,17.4-65.2,3.6-10.6,8.3-21.1,9.3-32.3a51,51,0,0,0-2.5-20.5" style="fill:#fff;stroke:#1d1d1b;stroke-miterlimit:10;stroke-width:7px"/><path d="M4409.1,642.5c-4.3,5.1-6.6,10.9-10,16.4s-9.9,10.8-15.4,15.8a33,33,0,0,0-6.4,7.1c-4.3,6.9-3.1,15.7-5.3,23.5-3.2,11.4-13.5,20.3-22.5,27.9s-12.9,13.2-14,26.2c-.7,9.7,0,19.9,4.4,29,8.1,16.9,27,27.1,44.9,35.3,11.7,5.4,24.3,10.6,37,10s21.6-5.6,30.7-11.5c28.8-18.6,49.7-47.2,58-79.3,4.2-16.2,5.3-33.3,11.3-49,2.7-7.1,6.3-13.9,8-21.3,2.6-11.6.1-23.9-2.3-35.8-3.4-16.1-11.4-18.6-27.4-16.7-9.1,1.1-17.3-2-26.2-2.4a109.4,109.4,0,0,0-22.9,1.7C4434.5,622.1,4419.2,630.3,4409.1,642.5Z" style="fill:#e25e43"/><path d="M4534.9,627c4.2,0,8,1.9,12.1,3.6,9.7,4.1,19.6,9.3,25.6,18.1,2.1,3,3.7,6.7,2.7,10.3s-5.3,6.5-9.3,8.1c-8.6,3.2-18,4.1-27.2,4.9-5.2.5-10.5.9-15.6-.2a7.5,7.5,0,0,1-3.2-1.3,8.3,8.3,0,0,1-2-3.1,32.4,32.4,0,0,1-1.4-21.5c1.9-7,7-16.5,14.5-18.5A12.6,12.6,0,0,1,4534.9,627Z" style="fill:#fff;stroke:#1d1d1b;stroke-miterlimit:10;stroke-width:7px"/><path d="M4467.3,654.4c10.9,2.7,22.8-3.7,22.5-17.7-.9-31.1-55-10.9-32.6,11.9A20.8,20.8,0,0,0,4467.3,654.4Z" style="fill:#1d1d1b"/><path d="M4485.1,632.3c-.4-3.1-2.5-7.4-5.9-8a5.4,5.4,0,0,0-5.6,2.7c-1.8,3.2-1.6,8.4.8,11.2s6.4,3.2,8.8.9S4485.4,634.7,4485.1,632.3Z" style="fill:#fff"/><path d="M4396.9,501.7c-8.8,2.4-15.1,11.7-14.1,20.8a891.5,891.5,0,0,0-13.2-110.4c-.9-5.1-3-11.3-8.2-11.9s-7.2,3-9.5,6.3a62.3,62.3,0,0,0-10.3,42.8c-13.9-1.1-24.2-13.8-29.7-26.7s-7.8-27.1-15.1-39.1c-2.6-4.2-6.6-8.5-11.5-8.1-6.6.6-9.3,8.6-10,15.2a122.8,122.8,0,0,0,6.2,52.8,78.6,78.6,0,0,1-39.1-37.6c-2.4-5-4.4-10.3-8.3-14.2s-10.6-5.7-14.9-2.3-4.2,7.5-4.4,11.8a78.9,78.9,0,0,0,8.2,37.3c-3.4-8.7-11.9-15.5-21.3-16s-19,5.5-21.7,14.5,2.5,19.9,11.5,22.7c-10.1-11.1-31.8-6.8-37,7.3s8.8,31.4,23.7,29.3c-14.9.1-30.3,10.2-33.2,24.9s10.6,31.2,25.3,28.7c-10.6,0-20.1,10.1-19.4,20.7s11.3,19.4,21.9,18c-8.7-.6-13.9,11.4-9.6,18.9s14,10.3,22.6,9.9c-6.2,2.3-9.6,10.1-7.2,16.2a12.8,12.8,0,0,0,16.5,6.7c-3.9,4.8-3.1,13.8,2.8,16.7-.3,10.9-12.4,16.7-22.2,21.4s-20.5,14.7-15.8,24.5c3.2,6.8,12.1,8.5,19.7,8.6,56.2.5,105.1-41.3,161.1-45.8,10.4-.8,20.9-.4,30.9-3.2,27.1-7.7,23.2-33.3,21.7-55.5A513.9,513.9,0,0,1,4396.9,501.7Z" style="fill:#1d1d1b"/><path d="M4380.1,675.8c-11.5,12.2-36.1,4.4-50,2.3-20.3-3.2-40.9,1.8-60,8.1-24.4,8.1-48.8,18.7-74.6,18.5-11.5-.2-22.9-9.2-12.9-20.2,2.9-3.3,6.9-5.4,10.8-7.5l55.2-29.8c-8.3,4.6-36,12.7-38.6.7-1.7-8.2,4-11.9,10.9-12.8-6.9.9-14.9,3.3-21.7.9s-10.6-10.4-6.6-15.7c2.4-3.1,6.6-4,10.4-4.5a166.4,166.4,0,0,1,42.3-.8,169.6,169.6,0,0,1-58.6-1.9c-24.6-5.1-10.4-25.7,8.6-24.8h.1l76.9,4.1-89.1-10c-8.8-1-20-4.3-20.8-13.2-.4-5,3.3-9.8,7.9-12a22.1,22.1,0,0,1,5.1-1.8,45.8,45.8,0,0,1,9.8-.8c38.2-.5,75.7,10,112.5,20.4a235,235,0,0,0-81.8-21.2c-9.6-.7-19.3-.8-28.5-3.4s-18.1-7.9-22.4-16.4-.1-31.8,9.7-34.8c2.6-.8,5.4.1,7.9,1l53,18.5c-25.4-9.8-50.5-29-63.4-53.4,12.1-7,13-9.1,24.4,2.2,14.1,14.1,28.2,27.7,44.3,39.7a245.9,245.9,0,0,1-47.3-56.9c-2.7-4.5-5.3-9.8-3.9-14.8,4.1-14.3,24.4-2.3,30.1,3q20.1,18.8,39.4,38.4a191.1,191.1,0,0,1-32.3-65.9l110.8,127.9c-38-41.9-58.9-99-57-155.5l71.1,126.5c-6.4-22.6-13.8-74.8,6.5-92.5,7,17.6,10.2,36.4,12.5,55.1,4.1,32.2,1.9,66.9,3.2,99.8,1.8-10.2,3.5-20.4,5.3-30.5-3.7,19.8,2.5,44.7,2.7,65.1C4382.2,623.4,4392.2,663,4380.1,675.8Z" style="fill:#fff"/><path d="M5075.1,899.7c7.4,2.6,13,8.4,19.2,13.2s14.2,8.6,21.6,6.2c3.6-1.2,6.7-3.8,10.2-5.3,9.1-4.1,20.3-.8,28,5.7s12.7,15.4,17.5,24.2" style="fill:none;stroke:#1d1d1b;stroke-linecap:round;stroke-linejoin:round;stroke-width:7px"/><path d="M5166.5,901.2c4.3-3.9,10.9-4.2,16.2-2.1s9.6,6.4,13.2,10.8a84.4,84.4,0,0,1,14.4,26.1" style="fill:none;stroke:#1d1d1b;stroke-linecap:round;stroke-linejoin:round;stroke-width:7px"/><path d="M5127.1,913.6c8.2,2.7,13.3,11.4,14.3,20.1s-1.3,17.2-3.6,25.6" style="fill:none;stroke:#1d1d1b;stroke-linecap:round;stroke-linejoin:round;stroke-width:7px"/><path d="M5179.6,896a39.7,39.7,0,0,1,2.9,43.7" style="fill:none;stroke:#1d1d1b;stroke-linecap:round;stroke-linejoin:round;stroke-width:7px"/><path d="M5225.2,725.6c58.1-29.5,112.1-73.2,142.6-131.8,5.3-10.2,10-22.6,4.9-33s-20.9-15-33.1-11.3-21.7,12.8-30.8,21.6c2.8-7.3,5.6-15,5.2-22.8s-5.1-16.1-12.7-18.1-12.6,1-18.1,4.4a76.3,76.3,0,0,0-31,36.5c2.5-9.2,5-18.9,2.8-28.1s-11-17.7-20.4-16.1c-6.8,1.2-11.8,7.2-15.5,13.1a94.4,94.4,0,0,0-13.5,43.8c-4.8-7-4.7-16.1-7.3-24.1s-11-15.9-18.6-12.3c-3.8,1.7-5.9,5.7-7.6,9.4a89.6,89.6,0,0,0-6.6,46,172.7,172.7,0,0,0-16.4-27.4c-2-2.7-4.5-5.6-7.8-5.6s-6.7,3.9-8.2,7.6a51.3,51.3,0,0,0-.1,38.5c-6.3-4-9.2-11.5-14-17.1s-14.5-9-19.3-3.3c-2.4,3-2.4,7.3-2,11.2a72,72,0,0,0,10.4,29.4L5088,620.2c-2.1-1.6-4.6-3.3-7.1-2.6s-3.9,5.3-3.7,8.6a56.8,56.8,0,0,0,12.8,32.2c-6-1.9-9.7-7.8-14.5-12s-13.4-5.9-16.6-.4c-1.5,2.8-1,6.2,0,9.3a43,43,0,0,0,17.4,22.8,61.9,61.9,0,0,0-34.4-8.1c0,20.4,16.9,36.4,33.2,48.6a498.2,498.2,0,0,0,62.5,40c11.3,6.1,24.4,12,36.6,8,8.1-2.6,14.3-9,20.4-15a267,267,0,0,1,56-41.4" style="fill:#1d1d1b"/><path d="M5093.9,711.7c-12.1-3.6-22.7-5.8-34.5-12.7-7-4.2-15-16.5-5.3-22.9,5.3-3.5,12.4-.6,18.1,2.4q19.5,10.5,38.6,21.9c-19.5-13.5-40.2-28.6-47.3-51.1l60.5,41.1a122.9,122.9,0,0,1-42.2-57.5,137.3,137.3,0,0,1,46.4,32.7,243.1,243.1,0,0,1-26.5-50.8c-1.6-4.1-2.9-9.2-.2-12.6s7.1-3.3,10.5-1.7,6,4.7,8.4,7.6a240.1,240.1,0,0,1,28.1,45.6,161.8,161.8,0,0,1-16.7-57.6c-.7-7,.8-16.2,7.7-17.5s10.9,5.7,13.6,11.6a467.5,467.5,0,0,1,20.7,55.8,178.5,178.5,0,0,1-2.2-75.6c1.1-5.6,3.5-12.3,9.1-13.3,3.9-.8,7.8,1.7,10,5.1s2.8,7.3,3.5,11.2c4.4,24.6,8.7,49.1,13.1,73.6-1.5-34.5-2.2-71.5,16.6-100.5,2.9-4.4,6.9-8.9,12.1-8.8s8.1,3.8,9.7,7.9,1.5,8.7,1.3,13.1c-1,35.7-7.1,68.8-15.8,103.5,15.2-39.9,16.9-97.7,57.2-121.9,3.9-2.4,9.2-4.3,13-1.6s3.6,9.1,2.5,14.1c-8.9,39.7-30.4,81.1-51.9,115.8,31.3-29.6,34.6-88.1,74.8-108.4,7.3-3.6,15.5-5.8,23.5-4.4s15.4,6.9,17.8,14.6c3.5,11.4-4.5,22.9-12,32.1-28.5,35-60.6,69.3-97.7,96.1a330.6,330.6,0,0,1-60.6,34.6c-8.1,3.6-16.5,10.3-25.1,12.3-11.7,2.8-26.4-3-36.5-8.5-12.5-6.8-22.3-18.7-35.9-23.3Z" style="fill:#fff;stroke:#1d1d1b;stroke-miterlimit:10"/><path d="M4821.7,786.5a10.4,10.4,0,0,0-2.1,5.6c-.1,3.4,2,5.6-.1,8.8s-7.3,3.6-10.2,5.8-3.5,5.8-1.4,7.8,2.1,1.1,2.9,1.9.7,6-1.6,8.1-5.4,3.4-6.7,6.1.2,8.3,3.5,10.7,7.6,2.8,11.7,3c13,.4,26-2,38.6-5.4,21.5-5.9,42.2-14.5,62.9-23.1,18.2-7.6,36.4-15.1,54.5-22.8,9.6-4,43.7-12.4,39.4-28.2-.9-3.3-3.9-5.7-7.1-6.9a32.1,32.1,0,0,0-10.2-1.2c-32.6,0-65.1,3.1-97.5,6.3-19.7,1.9-40,3.9-58.3,12C4834.7,777.4,4825.8,781,4821.7,786.5Z" style="fill:#fff;stroke:#1d1d1b;stroke-miterlimit:10;stroke-width:7px"/><path d="M5232.5,731.1a91.7,91.7,0,0,1,17.7,34.2c7.6,26.3-7.1,41.2-14,64.2-6.4,21.1-15.1,40.2-34.7,52s-43.3,16-66.2,18.8c-25.6,3.3-51.8,5.2-76.9-.6-29-6.7-57.9-30.5-78.9-50.9-11.5-11.1-23-23.5-30.7-37.7-5.4-10.1-17.8-19.6-20.9-30.1-2.5-8.1,2.7-17.1,10.1-21.2s16.6-2.1,25-4.3,19.2-9.2,27.9-13.5c18.7-9.2,37.2-18.9,56.3-27.3C5102.4,690.6,5191.1,681.2,5232.5,731.1Z" style="fill:#fff;stroke:#1d1d1b;stroke-miterlimit:10;stroke-width:7px"/><path d="M5202.4,769.2c-6.1-5-10.7-11.9-17.7-15.4-2.8-1.3-6-2.1-9-1.2s-5.6,3.5-5.6,6.6,2.8,6.2,3,9.6-2.4,6.3-5.4,8.1-6.3,2.7-9.2,4.5c-9.5,6-10.9,19-15.4,29.3-7.4,17.1-24.3,28-40.9,36.2-13.1,6.5-37.5,13.8-45.6,26.9-10.1,16.3,12.6,19.6,27.5,21.9,17.8,2.6,33.8.4,51.2-1.9s38,.3,56.2-7.2c23-9.4,44.9-42.6,51.3-66.3,3.2-12,6.4-24.1,6.9-36.4.4-8.1.4-17-2.4-24.8-3.9-10.9-15.2-14.4-21-2.3-2.6,5.2-.9,14.3-6.3,17S5206.6,772.7,5202.4,769.2Z" style="fill:#e25e43"/><path d="M5202.2,829.2c.1,7.9,6.9,14.2,14.2,17.2,16.5,6.8,35.2,1.9,52.3-3.1a7.2,7.2,0,0,0,4.1-2.2c1.5-2.2.3-5.2-1-7.4-7-12.4-19.2-30.1-34.8-29.2C5224.7,805.3,5202,814.4,5202.2,829.2Z" style="fill:#fff;stroke:#1d1d1b;stroke-miterlimit:10;stroke-width:7px"/><path d="M5169,781.6c-9.8,3.1-17.9,12.1-15,24.4,2.5,10.3,14,17.6,24.4,15.5s18.3-13,16.9-23.6C5193.3,782.3,5180.1,778.2,5169,781.6Z" style="fill:#1d1d1b"/><path d="M5172.4,799.5c2.2-2,2.3-6.4-.5-8.1s-6.3-1.4-8.2.4a6.4,6.4,0,0,0-2,5.4,4.3,4.3,0,0,0,1.4,3.1,5.5,5.5,0,0,0,4.5,1.1A6.9,6.9,0,0,0,5172.4,799.5Z" style="fill:#fff;stroke:#1d1d1b;stroke-miterlimit:10"/><path d="M4916.9,730.8a19.6,19.6,0,0,0,2.5,2.5,46.1,46.1,0,0,0,15.7,9.2c2,.7,6.2.9,7.7,2.5s.4,6,.8,8.4,2.8,5.6,5.3,7.6c5.7,4.4,12.4,7.2,18.2,11.2a29.1,29.1,0,0,1,11.3,14.8c2,5.4,5.8,7.5,10.3,10.7a262.7,262.7,0,0,0,93.6,40.3c5.8,1.2,12.1,2.1,17.4-.6,25.5-13,11.1-51.9-.2-70.1-14-22.7-36.7-38.3-56.6-55.3q-49-41.8-101.7-79.2c-13.3-9.4-29.1-19.1-44.8-14.7a119.6,119.6,0,0,0,42.5,55c-52-38.2-98.7-87-160-107a94.4,94.4,0,0,0,32.3,50.9l-10.9,1.9c10.1,13.8,21,27,31.9,40.2,6,7.3,12,14.7,18.9,21.2a137.3,137.3,0,0,0,29.1,21.2c4.3,2.4,8.8,3.4,13.1,5.4s11.4,5.3,17.1,7.9c2.3,1.1,4.8,2.6,5.3,5.1s-.6,3.7-.9,5.6A6.6,6.6,0,0,0,4916.9,730.8Z" style="fill:#1d1d1b"/><path d="M5091.8,826c10.1-.2,19.2-2.9,23.2-10.7s1-15.1-2-22.1c-15.7-36.7-43-56-72.6-81.1s-60.2-48.7-91.9-71c-12-8.4-26.4-17.1-40.6-13.1a108,108,0,0,0,38.5,49.3c-47-34.2-89.2-77.9-144.6-95.9a84.2,84.2,0,0,0,29.1,45.6l-9.8,1.7c9.1,12.3,19,24.2,28.8,36a193,193,0,0,0,17.1,19c27.7,26.4,67,36.4,104.3,45.3a75.5,75.5,0,0,0-44.4-.4,295.3,295.3,0,0,0,77.5,33.7,229,229,0,0,1-49.8-10.6,97.8,97.8,0,0,0,61.4,32.5l-33.9-2.1a233.8,233.8,0,0,0,72,37.2C5062.5,821.9,5078.2,826.2,5091.8,826Z" style="fill:#fff"/><path d="M5816.1,1034.2a207.8,207.8,0,0,1,17.4,58.9" style="fill:none;stroke:#1d1d1b;stroke-linecap:round;stroke-linejoin:round;stroke-width:9px"/><path d="M5874.1,1041.6a503.9,503.9,0,0,1,12.1,53.1" style="fill:none;stroke:#1d1d1b;stroke-linecap:round;stroke-linejoin:round;stroke-width:9px"/><path d="M5799,1098.8c19.8-8.5,45.1-2.1,58.3,15" style="fill:none;stroke:#1d1d1b;stroke-linecap:round;stroke-linejoin:round;stroke-width:9px"/><path d="M5867.9,1099.7c20.3-6.1,44.1,2.9,55.3,20.8" style="fill:none;stroke:#1d1d1b;stroke-linecap:round;stroke-linejoin:round;stroke-width:9px"/><path d="M5780.9,976.3c4.1-41.4-36.7-17.9-51.3-4.2a302.9,302.9,0,0,1-54.2,40.8c-3.4,2-6.9,4-9.2,7.2s-3.2,7.7-.8,10.9,7.7,3.7,11.9,3c14.5-2.4,26-21.5,36.3-11.3,3.5,3.4,9.2,1.5,13.5-.7a228.3,228.3,0,0,0,39.3-25.2C5773.2,991.4,5780.1,984.9,5780.9,976.3Z" style="fill:#fff;stroke:#1d1d1b;stroke-miterlimit:10;stroke-width:9px"/><path d="M5794.9,798.2c-9.6,11.4-16.8,24.2-20.2,37.9-1.9,7.3-2.8,15-6.7,21.5s-8.8,10-14.1,14.1c-19.9,15.4-32.1,39.6-34.7,65.2-3,30.1,20.6,54.1,40.9,73.3,34.1,32.2,83.2,49.2,129.3,40.9,47.7-8.6,83.7-43.9,101.9-87.6,7.3-17.5,9.8-40.8,7.6-59.7-2-17.2-12.1-33.2-16-50.2-4.8-20.8-6.5-43.6-20-60.2-10.3-12.7-15.7-19.5-32-27.3-20-9.4-39.3-13.5-61.7-10.4C5842.2,759.5,5813.8,775.8,5794.9,798.2Z" style="fill:#fff;stroke:#1d1d1b;stroke-miterlimit:10;stroke-width:9px"/><path d="M5827.5,865.5c-7.6-15.6-33.1-33.7-51.6-30.9s-19,26-30.3,36.1c-13.7,12.3-21.7,19-38.7,41.5-7.3,9.8-20.1,29.5-22.2,37.9-3.8,16,5.1,18.8,22.2,17,2.7-.3,5.2-.5,5.5,2.1s.6-1.1,0,0c-4,6.6.7,15.7,7.7,18.9s15.2,2,22.7.3c32.2-7.7,62.6-26.8,79.2-55.5C5833.7,912.6,5837.9,886.6,5827.5,865.5Z" style="fill:#1d1d1b"/><path d="M5719.9,904.9c-7.8,10.5-16.4,22.2-21,34.5-6.7,17.9,9.8,20.5,24.1,17.5a111.1,111.1,0,0,0,44.1-20c-2.6,6.3-8,10.9-13.8,14.3s-12.3,5.6-18.3,8.4-11.5,11.3-5.1,16.8c4.6,3.9,15.8-3.4,20.3-4.7a166.1,166.1,0,0,0,57.5-30.9c6.2-5.2,12.2-11.1,15.5-18.4,7.4-16.2,4.7-37.6,9.3-55,1.3-5.2,2.7-10.6,1.7-16-6.6-36.9-45.7-27.5-63.8-8.1S5735.4,884.4,5719.9,904.9Z" style="fill:#fff"/><path d="M5930.6,977.5c6-.2,12-.7,17.7-1.2,11.7-.9,24.9-2.7,32.1-12,16.9-21.8,12.7-64.5,4.3-88.6-2.4-7-5.4-13.9-6.7-21.3-4.3-24.3-3.8-38.8-18.9-59-7.7-10.3-20.1-17.3-32.9-17.3-17.3.1-19.7,11.1-30.9,19.5-9,6.7-18.7,9.2-28.3,15.1s-13.2,14.2-15.1,23.7c-3.2,15.6,2.5,28.2,2.7,43.2,0,7.4-2.2,14.7-2.9,22.2-2.3,24,8.3,47.8,27,63.1C5893,976.6,5912.1,978.3,5930.6,977.5Z" style="fill:#e25e43"/><circle cx="5890" cy="839.2" r="21.7" style="fill:#1d1d1b"/><circle cx="5887.4" cy="828.6" r="6.2" style="fill:#fff"/><path d="M5953.7,854.9a18.4,18.4,0,0,0,6.7,3.4,13,13,0,0,0,5.2.5,19,19,0,0,0,5.7-1.8c7.4-3.2,20.2-8.3,25-15.1,6.1-8.6,2.2-17.3-6.8-20.7s-13.1-4-21.4-3.8-15.7-.5-19.5,8S5945.6,848.3,5953.7,854.9Z" style="fill:#fff;stroke:#1d1d1b;stroke-miterlimit:10;stroke-width:9px"/></svg>